<?xml version="1.0" encoding="utf-8"?>
<!-- Generator: Adobe Illustrator 24.0.2, SVG Export Plug-In . SVG Version: 6.00 Build 0)  -->
<svg version="1.1" id="Capa_1" xmlns="http://www.w3.org/2000/svg" xmlns:xlink="http://www.w3.org/1999/xlink" x="0px" y="0px"
	 viewBox="0 0 384 384" style="enable-background:new 0 0 384 384;" xml:space="preserve">
<style type="text/css">
	.st0{fill:#FFFFFF;}
</style>
<g>
	<path class="st0" d="M329.2,281.1c-5.1-2.6-10.1-5.1-15-7.6c-9.2-4.7-9.9-14.6-1.3-20.2c14.8-9.7,29.6-19.5,44.5-29.1
		c8.5-5.5,17.2-1,17.8,9.1c1,17.6,2,35.2,2.9,52.8c0.5,10.7-7.5,15.9-17,11.2c-3.9-1.9-7.8-3.9-11.8-5.9c-4,5.4-7.7,10.9-11.9,16.1
		c-32,39.7-73.3,63-123.9,69.1C116.1,388.2,26.3,321.7,8.9,225.2C-9.4,124.4,57,27.4,157.9,9.3c64.3-11.5,120,7.1,166.7,52.6
		c5.3,5.1,5.5,12,0.9,16.5c-4.6,4.5-11.2,4-16.5-1.3c-24.4-24.6-53.5-40.7-87.7-46.5c-54.7-9.3-103.1,4.9-143.2,43.3
		c-36.4,34.7-53.4,78.3-49.8,128.5c4.2,58.9,32.9,103.5,84.1,133c26.7,15.4,56,22.3,86.7,20.4c55.1-3.3,98.4-27.9,129.7-73.5
		C328.9,282.1,329,281.8,329.2,281.1z"/>
	<path class="st0" d="M281.5,292.7c-59.6,0-119.2,0-179.8,0c0.7-14.5-0.1-29,2.6-42.9c4-21.3,19.6-32.1,39.7-37.6
		c12.1-3.3,21-1,27.8,10.4c5.7,9.7,13.1,18.4,20,27.8c0.9-1.3,1.7-2.3,2.5-3.3c7.2-9.9,14.5-19.8,21.6-29.8c3.6-5,8.3-7.2,14.4-6.6
		c8.9,0.9,17.4,3.1,25.4,7.3c15.8,8.3,24.6,21.5,25.9,39.2C282.2,268.9,281.5,280.7,281.5,292.7z"/>
	<path class="st0" d="M236.5,140.4c-0.1,24.5-20.2,44.4-44.7,44.2c-24.2-0.1-44.2-20.3-44.1-44.6c0.1-24.3,20.2-44.3,44.4-44.3
		C216.5,95.8,236.6,115.9,236.5,140.4z"/>
</g>
</svg>
