<?xml version="1.0" encoding="utf-8"?>
<!-- Generator: Adobe Illustrator 24.0.2, SVG Export Plug-In . SVG Version: 6.00 Build 0)  -->
<svg version="1.1" id="Capa_1" xmlns="http://www.w3.org/2000/svg" xmlns:xlink="http://www.w3.org/1999/xlink" x="0px" y="0px"
	 viewBox="0 0 400.71 400.7" style="enable-background:new 0 0 400.71 400.7;" xml:space="preserve">
<g>
	<path d="M235.1,200.86c-36.94-36.7-72.01-71.53-107.07-106.38c-6.38-6.34-13.01-12.47-19.03-19.15
		c-10.65-11.81-10.16-28.61,0.7-38.78c10.28-9.62,26.99-9.67,37.84,1.09c47.92,47.54,95.68,95.25,143.19,143.21
		c12,12.11,11.7,27.3-0.51,39.61c-47.24,47.59-94.66,95-142.24,142.25c-11.31,11.23-28.5,11.23-38.83,1
		c-10.95-10.85-10.75-27.54,1.34-39.75c36.74-37.09,73.72-73.92,110.68-110.78C224.98,209.36,229.25,206,235.1,200.86z"/>
</g>
</svg>
