<?xml version="1.0" encoding="utf-8"?>
<!-- Generator: Adobe Illustrator 24.0.2, SVG Export Plug-In . SVG Version: 6.00 Build 0)  -->
<svg version="1.1" id="Capa_1" xmlns="http://www.w3.org/2000/svg" xmlns:xlink="http://www.w3.org/1999/xlink" x="0px" y="0px"
	 viewBox="0 0 384 384" style="enable-background:new 0 0 384 384;" xml:space="preserve">
<style type="text/css">
	.st0{fill:#FFFFFF;}
</style>
<g>
	<path class="st0" d="M3.5,178c0-7.1,0-14.2,0-21.3c0.6-4.6,1.1-9.2,1.8-13.8C10.2,111.1,23.1,83,44.5,59
		C69.4,31.1,100.2,13.5,137,6.6c6.5-1.2,13-1.9,19.6-2.9c7.1,0,14.2,0,21.4,0c0.8,0.2,1.6,0.6,2.4,0.6c13.5,1,26.7,3.8,39.5,8.1
		C307.2,41.8,353.2,139,320.3,225c-4.9,12.9-11.4,24.9-19.4,36.5c2.7,1.9,5.4,3.6,8,5.4c16.1,11.4,32.6,22.3,48.2,34.3
		c10.3,7.9,20.9,16.2,23.4,30.4c0,3.2,0,6.4,0,9.6c-2.3,5.4-3.8,11.5-7.2,16.2c-4.3,5.8-9.8,11-15.4,15.6
		c-10.5,8.5-30.8,12-44.4-2.9c-4.2-4.6-8.9-8.8-12.6-13.8c-11-14.9-21.5-30-32.2-45.1c-2.4-3.4-4.6-6.8-6.9-10.1
		c-0.6,0.2-0.8,0.3-1.1,0.4c-0.9,0.6-1.9,1.2-2.8,1.8c-23.3,15.5-49,24.7-76.9,26.8c-43.9,3.3-83.3-8.6-117.4-36.4
		c-30.8-25.1-49.8-57.4-57.3-96.4C5.1,190.8,4.4,184.4,3.5,178z M167.2,288c66.7-0.1,121-54.2,121-120.5
		c0-67.2-54.2-121.2-121.4-121.1c-66.7,0.1-120.7,54.3-120.6,121.2C46.2,233.9,100.7,288.1,167.2,288z"/>
	<path class="st0" d="M168.1,193.3c16.5,0.7,34.1,0.9,51.6,2.2c16.1,1.2,27.7,15.2,26.9,31.3c-0.1,1.2-0.8,2.5-1.6,3.5
		c-37.2,46.1-107.1,49.6-148.9,7.6c-1.2-1.2-2.2-2.6-3.6-3.7c-5.5-4.4-5.7-9.9-4.1-16.2c3.1-12.2,13.1-21.6,25.7-22.4
		C131.8,194.4,149.4,194.1,168.1,193.3z"/>
	<path class="st0" d="M215.2,134.7c-0.5,26.7-22.3,48-48.8,47.5c-26.7-0.4-47.8-22.5-47.3-49.4c0.5-25.8,22.6-47,48.6-46.6
		C194.2,86.7,215.7,108.5,215.2,134.7z"/>
</g>
</svg>
