<?xml version="1.0" encoding="utf-8"?>
<!-- Generator: Adobe Illustrator 24.0.2, SVG Export Plug-In . SVG Version: 6.00 Build 0)  -->
<svg version="1.1" id="Capa_1" xmlns="http://www.w3.org/2000/svg" xmlns:xlink="http://www.w3.org/1999/xlink" x="0px" y="0px"
	 viewBox="0 0 30 30" style="enable-background:new 0 0 30 30;" xml:space="preserve">
<style type="text/css">
	.st0{fill:#FFFFFF;}
</style>
<g>
	<path class="st0" d="M15,29.6c-3.4,0-6.8,0-10.1,0c-1.1,0-2.2-0.3-3.1-1c-1.7-1.3-1.9-3.5-0.3-5c1.2-1.2,2.6-2,4.1-2.6
		c3.4-1.4,7-1.8,10.6-1.7c2.8,0.1,5.5,0.6,8,1.6c1.5,0.6,2.9,1.4,4.1,2.4c2.4,2.1,1.4,5-1.1,6c-0.6,0.2-1.3,0.3-2,0.3
		C21.7,29.7,18.3,29.6,15,29.6z"/>
	<path class="st0" d="M15,0.3c4.8,0,8.6,3.8,8.6,8.6c0,4.8-3.9,8.6-8.6,8.6c-4.8,0-8.6-3.9-8.6-8.6C6.4,4.2,10.2,0.4,15,0.3z"/>
</g>
</svg>
