<?xml version="1.0" encoding="utf-8"?>
<!-- Generator: Adobe Illustrator 24.0.2, SVG Export Plug-In . SVG Version: 6.00 Build 0)  -->
<svg version="1.1" id="Capa_1" xmlns="http://www.w3.org/2000/svg" xmlns:xlink="http://www.w3.org/1999/xlink" x="0px" y="0px"
	 viewBox="0 0 384 384" style="enable-background:new 0 0 384 384;" xml:space="preserve">
<style type="text/css">
	.st0{fill:#FFFFFF;}
</style>
<g>
	<path class="st0" d="M9,330.7c0-13.8,0-27.6,0-41.5c0.7-4.8,1.3-9.6,2.1-14.4c9.7-57.7,56.1-104.1,113.6-113.6
		c5.1-0.8,10.3-1.4,15.4-2.1c-1.7-0.7-3.4-1-5.1-1.3c-33.8-6.3-58.9-34.2-61.4-68.6C71,55.6,92,24,124.3,13.1
		c5.5-1.8,11.3-2.8,16.9-4.1c4.8,0,9.5,0,14.3,0c0.8,0.2,1.6,0.5,2.4,0.6c32.7,4.1,58.4,28.8,64.5,62.2
		c5.7,30.8-10.5,63.5-38.9,78.5c-8.4,4.5-17.4,7.2-26.9,8.6c41.4,3.6,75.2,21.3,101.3,53.4c-46.1,27.4-62.9,66.5-50.2,118.4
		C141.7,330.7,75.3,330.7,9,330.7z"/>
	<path class="st0" d="M292.8,375c-7.2-1.9-14.7-3.2-21.6-5.9c-29.8-11.7-49.4-44.2-46.1-75.5c3.7-34.4,28.2-61.6,60.8-67.4
		c43.1-7.7,82.6,21,88.5,64.2c0.1,0.8,0.4,1.6,0.6,2.4c0,4.8,0,9.5,0,14.3c-0.2,0.8-0.5,1.6-0.6,2.4c-4.1,30.5-25.7,55.2-55.5,63.1
		c-3.9,1-7.9,1.7-11.8,2.5C302.3,375,297.6,375,292.8,375z M286.8,329c4.2-4.5,8.6-9.1,13.5-14.2c4.6,4.9,8.9,9.5,12.8,13.8
		c5.2-5.2,10.2-10.2,15.8-15.8c-4.3-4.2-8.9-8.6-14-13.5c4.6-4.5,9.1-8.9,13.1-12.9c-4.9-5-9.7-10-15.1-15.5
		c-4.2,4.5-8.4,9.1-13.3,14.2c-4.7-5-9.1-9.6-13.3-14c-5.2,5.2-10.1,10.1-15.6,15.6c4.6,4.1,9.4,8.4,14.9,13.4
		c-5.3,5-9.9,9.3-14.3,13.4C276.5,318.7,281.4,323.5,286.8,329z"/>
</g>
</svg>
