<?xml version="1.0" encoding="utf-8"?>
<!-- Generator: Adobe Illustrator 24.0.2, SVG Export Plug-In . SVG Version: 6.00 Build 0)  -->
<svg version="1.1" id="Capa_1" xmlns="http://www.w3.org/2000/svg" xmlns:xlink="http://www.w3.org/1999/xlink" x="0px" y="0px"
	 viewBox="0 0 291.4 276" style="enable-background:new 0 0 291.4 276;" xml:space="preserve">
<style type="text/css">
	.st0{fill:#FFFFFF;}
</style>
<g>
	<g>
		<path class="st0" d="M113.9,125.8c-31.8-18.6-40.4-52.7-31.8-79.4c8.7-27,34.3-46.1,62.2-46.4c29.2-0.3,54.9,17.6,64.5,44.8
			c9,25.4,2.2,61.5-31.1,81c4.2,1.5,8.4,2.8,12.4,4.4c33.9,14.1,56.9,38.4,68.9,73.2c1,2.9,2.2,4.1,5.4,4.5c6.9,0.8,13.8,2,20.7,3.2
			c4.9,0.9,6.3,2.6,6.3,7.7c0,13.3,0,26.5,0,39.8c0,6.6-2.7,8.8-9.2,7.5c-21.1-4.1-42.3-5.8-63.8-5c-23,0.9-45.4,5.2-66.8,13.7
			c-4,1.6-7.4,1.6-11.5,0c-31.3-12.3-63.9-15.9-97.2-13.1c-11.4,0.9-22.8,2.9-34.2,4.5c-6,0.9-8.7-1.2-8.7-7.4c0-13.4,0-26.8,0-40.1
			c0-4.8,1.4-6.6,6.1-7.5c7.1-1.3,14.3-2.4,21.5-3.4c2.5-0.3,3.8-1.2,4.7-3.7c13.6-39.2,40.2-65,79.8-77.5
			C112.6,126.4,113,126.1,113.9,125.8z M44.6,205.8c4.3-0.2,8.1-0.5,12-0.6c29.9-1.1,59.1,2.3,86.8,14.4c1.3,0.6,3.2,0.6,4.5,0.1
			c28.1-12.3,57.6-15.8,87.9-14.4c3.7,0.2,7.3,0.3,11.2,0.5c-11.2-35.2-48.2-73-103.1-72.1C90.9,134.6,55.3,171.8,44.6,205.8z
			 M145.8,121.6c30.3,0,54.8-24.5,54.7-54.8c0-30.2-24.6-54.8-54.8-54.8S91,36.6,91,66.9C91,97.1,115.5,121.6,145.8,121.6z
			 M12.3,222.1c0,10.6,0,20.7,0,31.1c43.2-7.3,85.7-6.3,127.4,8.6c0-7.9,0-15.3,0-22.7c0-8.3,0-8.3-7.7-11.2
			C92.8,213.1,52.8,215.3,12.3,222.1z M151.8,261.8c41.9-15,84.4-15.7,127.4-8.6c0-10.6,0-20.8,0-31c-26.6-4.7-53-7-79.6-3.9
			c-15.6,1.8-30.7,5.4-45.1,11.7c-1.1,0.5-2.5,1.7-2.5,2.6C151.7,242.2,151.8,251.7,151.8,261.8z"/>
	</g>
</g>
</svg>
