<?xml version="1.0" encoding="utf-8"?>
<!-- Generator: Adobe Illustrator 24.0.2, SVG Export Plug-In . SVG Version: 6.00 Build 0)  -->
<svg version="1.1" id="Capa_1" xmlns="http://www.w3.org/2000/svg" xmlns:xlink="http://www.w3.org/1999/xlink" x="0px" y="0px"
	 viewBox="0 0 291.4 276.1" style="enable-background:new 0 0 291.4 276.1;" xml:space="preserve">
<style type="text/css">
	.st0{fill:#FFFFFF;}
</style>
<g>
	<path class="st0" d="M145.6,274.9c-44.8-0.1-81-36.3-81-81.1c0-45,36.3-81.3,81.3-81.3c45,0.1,81.2,36.4,81.1,81.4
		C226.7,238.8,190.5,275,145.6,274.9z M145.6,231.5c9.5-0.1,17.9-2,26.5-5.7c3.4-1.6,5.1-3.8,5-7.7c-0.2-7.2,0-14.5-0.2-21.7
		c0-1.7,0.5-2.6,2.1-3.2c4.2-1.7,8.5-3.6,12.7-5.4c2.6-1.1,4.2-2.9,4.1-5.8c-0.1-2.9-1.4-4.9-4.2-6.1c-13.9-5.9-27.9-11.8-41.8-17.9
		c-2.9-1.3-5.6-1.2-8.4,0.1c-13.7,6-27.4,11.8-41.2,17.7c-2.8,1.2-4.5,3.1-4.5,6.2c0,3.2,1.8,4.9,4.5,6.1c4.1,1.7,8.1,3.5,12.1,5.2
		c1.6,0.6,2.1,1.6,2.1,3.3c-0.1,7.4,0,14.7-0.1,22c-0.1,3.4,1.3,5.7,4.5,7.1C127.4,229.4,136.2,231.5,145.6,231.5z"/>
	<path class="st0" d="M193.7,113.4c-15.1-8.5-31-13-48.7-13.2c0.6-0.9,1-1.6,1.6-2.2c27-31.4,53.9-62.9,80.8-94.3
		c2.2-2.6,4.7-3.8,8.1-3.8c13.6,0.1,27.2,0,40.8,0.1c5.6,0,8.8,4.3,6.7,8.9c-0.4,0.9-1,1.6-1.6,2.4c-28.8,33.5-57.4,67.1-86.2,100.5
		C194.8,112.3,194.3,112.8,193.7,113.4z"/>
	<path class="st0" d="M137.3,89.5c-3.4,3.9-6.6,7.8-10,11.6c-0.5,0.6-1.3,1.2-2.1,1.4c-9.6,2.2-18.6,5.8-27.4,10.9
		c-0.7-0.8-1.4-1.5-2.1-2.3C67.3,78,38.8,44.8,10.5,11.7c-2-2.4-3.4-4.9-2-8s4.2-3.8,7.4-3.8c13.5,0.1,27,0.1,40.5,0
		c2.8,0,5.1,0.7,7.1,2.9c24.5,28.6,49.1,57.2,73.5,85.9C136.9,88.9,137,89,137.3,89.5z"/>
	<path class="st0" d="M118.1,181.6c8.9-3.8,17.7-7.6,26.5-11.4c0.7-0.3,1.8-0.2,2.5,0.1c8.6,3.7,17.2,7.4,26.3,11.3
		c-1.1,0.5-1.9,1-2.7,1.3c-7.6,3.3-15.2,6.6-22.9,9.7c-1,0.5-2.5,0.7-3.5,0.3c-8.4-3.4-16.7-7.1-25.1-10.7
		C118.9,182.3,118.7,182,118.1,181.6z"/>
	<path class="st0" d="M127,215.4c0-5.3,0-10.4,0-16c4.6,2,9.1,3.6,13.3,5.7c3.8,1.9,7.1,1.8,10.9-0.1c4.2-2,8.5-3.7,13.3-5.7
		c0,5.3,0.1,10-0.1,14.9c0,0.5-0.9,1.4-1.6,1.6C150.9,220.2,138.9,220.1,127,215.4z"/>
</g>
</svg>
