<?xml version="1.0" encoding="utf-8"?>
<!-- Generator: Adobe Illustrator 24.0.2, SVG Export Plug-In . SVG Version: 6.00 Build 0)  -->
<svg version="1.1" id="Capa_1" xmlns="http://www.w3.org/2000/svg" xmlns:xlink="http://www.w3.org/1999/xlink" x="0px" y="0px"
	 viewBox="0 0 384 384" style="enable-background:new 0 0 384 384;" xml:space="preserve">
<style type="text/css">
	.st0{fill:#022136;}
</style>
<g>
	<path class="st0" d="M384,207.8c-1,7.2-1.6,14.4-3,21.4c-13.7,68.1-53.4,114.9-116.9,142c-3.7,1.6-7.5,2.9-11.3,4
		c-8.2,2.5-13.7-1.6-13.7-10c0-15.1,0-30.3,0.2-45.4c0.2-14.6-1.5-28.4-12.3-39.5c8.7-1.8,17.4-3.1,25.8-5.3
		c19.2-5,35.7-14.3,46.8-31.3c9-13.6,12.6-29,13.8-45c1.1-13.8,0.9-27.7-5.2-40.4c-3.3-7-8.1-13.4-12.1-20.1c-0.7-1.2-1.4-3-1.1-4.2
		c4.6-14.9,3.3-29.6-1.4-44.2c-1.2-3.7-3.4-4.5-6.3-3.9c-7,1.5-14.3,2.5-20.9,5.3c-8.4,3.5-16.1,8.5-24.2,12.7
		c-1.6,0.8-3.8,1.3-5.5,0.9c-30.1-7.4-60.1-7.4-90.2,0c-1.8,0.4-4.2-0.1-5.8-1.1c-12-7.3-24.1-14.1-38.1-17
		c-11-2.3-12.3-1.5-15.1,9.4c-3.2,12.9-3.6,25.7,0.8,38.4c0.3,0.9,0,2.5-0.7,3.2c-16.3,18.4-20.1,40.1-17.7,63.7
		c1.6,15,5.1,29.3,13.4,42c11.2,17.2,27.7,26.7,47,31.8c8.3,2.2,16.8,3.5,25.4,5.3c-0.1,0.2-0.3,0.8-0.6,1.2
		c-5.4,5.7-8.5,12.6-9.8,20.3c-0.5,2.7-1.7,4.1-4.2,4.9c-14.2,4.8-28.1,5.9-40.6-3.9c-4.7-3.7-8.5-8.8-12-13.7
		c-6.8-9.7-15.1-17-27.2-18.7c-2.1-0.3-4.3-0.2-6.3,0.3c-1.5,0.4-3.7,1.4-4,2.5c-0.3,1.2,1,3.1,2,4.4c1.1,1.3,2.6,2.4,4,3.3
		c10,5.9,16.8,14.7,20.8,25.3c9,24.2,31,32.1,53.3,30.1c4.1-0.4,8.2-1.1,12.5-1.6c0.1,0.9,0.3,1.9,0.3,2.8c0.1,9,0.2,18,0.3,27
		c0.1,9.3-5.8,13.7-14.5,10.5C64.1,351.2,21.8,305.8,4.7,237.6c-2.1-8.6-2.7-17.5-4-26.3c-0.2-1.2-0.4-2.4-0.6-3.6
		c0-7.8,0-15.5,0-23.3c1-7.4,1.8-14.9,3.2-22.2C19.3,77.1,92.4,13.5,180,8.3c45.7-2.7,87.7,8.9,124.9,35.9
		c41.2,29.8,66.8,69.8,76.1,120c1.3,7,2,14,2.9,21.1C384,192.7,384,200.3,384,207.8z"/>
</g>
</svg>
