<?xml version="1.0" encoding="utf-8"?>
<!-- Generator: Adobe Illustrator 24.0.2, SVG Export Plug-In . SVG Version: 6.00 Build 0)  -->
<svg version="1.1" id="Capa_1" xmlns="http://www.w3.org/2000/svg" xmlns:xlink="http://www.w3.org/1999/xlink" x="0px" y="0px"
	 viewBox="0 0 291.4 276.1" style="enable-background:new 0 0 291.4 276.1;" xml:space="preserve">
<style type="text/css">
	.st0{fill:#FFFFFF;}
</style>
<g>
	<path class="st0" d="M291.4,109.2c-11.5,5-22.5,9.8-33.5,14.5c-2.6,1.1-3.5,2.3-3.5,5.1c0.2,11.3,0.1,22.6,0.1,33.8
		c0,3.4-0.3,6.8,3.2,8.3c-4.2,4.1-8.1,8.1-12,11.9c-3.4-3.4-7.2-7.2-11.1-11.1c4.2-2.1,3.4-6.2,3.4-10c0-8.5,0-17.1,0-25.6
		c0-1,0-2,0-3.6c-3.6,1.6-6.8,3-9.9,4.3c-3.1,1.4-6.2,2.8-9.4,4c-2,0.7-2.6,1.9-2.6,4c0.1,26.9,0.1,53.8,0.1,80.7c0,1.2,0,2.4,0,3.9
		c-46.3,0-92.4,0-138.9,0c0-1.1,0-2.3,0-3.4c0-26.9,0-53.8,0.1-80.7c0-2.1-0.6-3.1-2.6-4C51.1,131.2,27.6,121,4.1,110.8
		c-1-0.5-2-0.9-3.4-1.5c1-0.5,1.7-0.9,2.5-1.3c47.3-20.3,94.6-40.6,141.9-60.9c1.9-0.8,3.4-0.9,5.3,0
		c45.9,20.3,91.9,40.5,137.9,60.8C289.1,108.2,290,108.6,291.4,109.2z M42.3,109.1c0.9,0.5,1.3,0.7,1.7,0.9
		c33.4,14.5,66.8,29.1,100.2,43.4c1.3,0.5,3.1,0.2,4.4-0.3c32.7-14.2,65.4-28.4,98.1-42.6c0.9-0.4,1.7-0.9,2.9-1.5
		c-0.9-0.5-1.4-0.7-1.8-1c-32.8-14.4-65.6-28.9-98.5-43.3c-1.1-0.5-2.8-0.3-3.9,0.1c-24,10.2-48,20.5-72,30.8
		C63.2,100.1,53,104.5,42.3,109.1z M199.4,149.3c-1.2,0.5-1.9,0.9-2.7,1.2c-16,6.9-32,13.8-47.9,20.8c-1.9,0.9-3.4,0.9-5.3,0.1
		c-15.5-6.8-31-13.5-46.6-20.3c-0.9-0.4-1.8-0.7-2.9-1.1c0,11.2,0,22.1,0,32.9c35.3,0,70.3,0,105.4,0
		C199.4,171.6,199.4,160.6,199.4,149.3z M199.3,199.6c-35.3,0-70.3,0-105.4,0c0,4.5,0,8.8,0,13.2c35.2,0,70.2,0,105.4,0
		C199.3,208.5,199.3,204.1,199.3,199.6z"/>
</g>
</svg>
