<?xml version="1.0" encoding="utf-8"?>
<!-- Generator: Adobe Illustrator 24.0.2, SVG Export Plug-In . SVG Version: 6.00 Build 0)  -->
<svg version="1.1" id="Capa_1" xmlns="http://www.w3.org/2000/svg" xmlns:xlink="http://www.w3.org/1999/xlink" x="0px" y="0px"
	 viewBox="0 0 384 384" style="enable-background:new 0 0 384 384;" xml:space="preserve">
<style type="text/css">
	.st0{fill:#022136;}
</style>
<g>
	<path class="st0" d="M285.8,384c-62.5,0-125,0-187.5,0c-3.9-0.6-7.9-1-11.8-1.9C43,372.3,15.1,346,3.1,303
		C1.6,297.4,1,291.5,0,285.8c0-62.5,0-125,0-187.5c0.6-3.9,1-7.9,1.9-11.8C11.7,43,38,15.1,81,3.1C86.6,1.6,92.5,1,98.3,0
		c62.5,0,125,0,187.5,0c3.9,0.6,7.9,1,11.8,1.9C341,11.7,368.9,38,380.9,81c1.6,5.6,2.1,11.5,3.1,17.2c0,62.5,0,125,0,187.5
		c-0.6,3.9-1,7.9-1.9,11.8c-9.8,43.5-36.1,71.4-79.1,83.3C297.4,382.4,291.5,383,285.8,384z M192,350c27.7,0,55.5,0,83.2,0
		c8.8,0,17.5-0.9,25.8-3.9c30.5-10.9,48.9-37.1,48.9-70.4c0.1-55.7,0.2-111.5-0.2-167.2c-0.1-8.5-1.2-17.4-3.9-25.4
		c-10.3-30.7-36.9-49-70.1-49.1c-55.9-0.1-111.7-0.2-167.6,0.1c-8.4,0-17.1,1.2-25,3.8c-30.6,10.2-49,36.7-49.1,69.7
		c-0.1,56.1-0.1,112.2,0,168.3c0,25.2,9.9,45.5,30.3,60.5c13.1,9.6,27.9,13.4,44,13.4C136.3,349.9,164.1,350,192,350z"/>
	<path class="st0" d="M192,93c54.4,0,99.1,44.8,98.9,99.1c-0.2,54.5-45,99.1-99.2,98.8c-54.4-0.3-98.7-44.6-98.7-98.9
		C93,137.8,137.7,93,192,93z M256.8,192.1c0.1-35.7-29-64.8-64.8-64.9c-35.7-0.1-64.8,29-64.9,64.8c-0.1,35.7,29,64.8,64.8,64.9
		C227.6,256.9,256.7,227.9,256.8,192.1z"/>
	<path class="st0" d="M295.1,114.1c-13.6,0-24.8-11.1-25-24.7c-0.2-13.6,11.3-25.1,25-25c13.8,0,25.2,11.5,25,25.1
		C319.8,103,308.7,114.1,295.1,114.1z"/>
</g>
</svg>
