<?xml version="1.0" encoding="utf-8"?>
<!-- Generator: Adobe Illustrator 24.0.2, SVG Export Plug-In . SVG Version: 6.00 Build 0)  -->
<svg version="1.1" id="Capa_1" xmlns="http://www.w3.org/2000/svg" xmlns:xlink="http://www.w3.org/1999/xlink" x="0px" y="0px"
	 viewBox="0 0 30 30" style="enable-background:new 0 0 30 30;" xml:space="preserve">
<style type="text/css">
	.st0{fill:#FFFFFF;}
</style>
<g>
	<path class="st0" d="M13.9,2.5c0-0.4,0-0.8,0-1.1c0-0.7,0.5-1.2,1.2-1.2c0.6,0,1.1,0.5,1.1,1.2c0,0.4,0,0.8,0,1.1
		c0.9,0.3,1.9,0.5,2.7,0.8c3.7,1.7,5.7,4.7,5.9,8.8c0.1,1.8,0,3.5,0.1,5.3c0.1,2.3,0.7,4.6,1.7,6.7c0,0.1,0.2,0.2,0.3,0.3
		c0.6,0.2,0.9,0.7,0.8,1.3c-0.1,0.6-0.6,1-1.2,1c-4.6,0-9.2,0-13.8,0c-3,0-5.9,0-8.9,0c-0.9,0-1.5-0.8-1.2-1.5
		c0.1-0.3,0.4-0.4,0.6-0.7c0.1-0.1,0.3-0.2,0.4-0.4c1.1-2.5,1.7-5.2,1.7-7.9c0-1.2,0-2.4,0-3.6c0-5,3.3-8.9,8.3-9.8
		C13.6,2.5,13.7,2.5,13.9,2.5z"/>
	<path class="st0" d="M15,29.9c-0.7,0-1.5,0-2.2,0c-0.7,0-1.2-0.5-1.2-1.1c0-0.7,0.5-1.2,1.2-1.2c1.5,0,2.9,0,4.4,0
		c0.7,0,1.2,0.5,1.2,1.2c0,0.7-0.5,1.1-1.3,1.1C16.5,29.9,15.7,29.9,15,29.9z"/>
</g>
</svg>
