<?xml version="1.0" encoding="utf-8"?>
<!-- Generator: Adobe Illustrator 24.0.2, SVG Export Plug-In . SVG Version: 6.00 Build 0)  -->
<svg version="1.1" id="Capa_1" xmlns="http://www.w3.org/2000/svg" xmlns:xlink="http://www.w3.org/1999/xlink" x="0px" y="0px"
	 viewBox="0 0 291.4 276.1" style="enable-background:new 0 0 291.4 276.1;" xml:space="preserve">
<style type="text/css">
	.st0{fill:#FFFFFF;}
</style>
<g>
	<path class="st0" d="M113,147.2c0-10.8,0-21.4,0.1-32.1c0-0.9,0.6-1.9,1.1-2.7c2.8-4.7,2.8-9.4,0-14.2c-0.5-0.9-1.1-1.9-1.1-2.9
		c-0.1-21.4,0-43,0-64.4c0-0.2,0.1-0.4,0.2-0.8c56.8,0,113.7,0,170.8,0c0,39,0,77.9,0,117.1C227.1,147.2,170.3,147.2,113,147.2z
		 M212.4,130c2.7,0,5.3,0.1,7.8,0c2.9-0.1,4.7-1.7,4.8-4.7c0.1-5.2,1-10.7-0.2-15.5c-1.2-4.9,0.8-8.3,2.7-12c1-2,2.3-3.9,3.5-5.8
		c4.9-8.4,6.7-17.4,4.6-26.9c-3.6-16.1-13.8-26.5-30-29.6c-15.8-3-28.9,2.5-38,15.6c-9.3,13.4-9.2,27.5-1.1,41.6
		c2.2,3.7,4,7.7,6,11.5c0.4,0.7,0.6,1.6,0.6,2.5c-0.3,6.2-0.9,12.2-1,18.4c-0.1,3.4,1.9,4.9,5.4,5c2.3,0.1,4.8,0,7,0
		c3,10,7,13.4,15.3,12.9C206.6,142.6,210.8,138.4,212.4,130z"/>
	<path class="st0" d="M6.9,179.8c-3.7-1.9-5.9-4.5-6-8.2c-0.2-7.1-0.4-14.3,0.2-21.4c0.7-9.6,9.8-17.4,19.9-17.5
		c10-0.2,20-0.1,29.9,0c13.5,0.1,25-4.6,34.5-14.2c4.9-4.9,9.7-9.6,14.5-14.5c1.8-1.8,3.7-3,5.8-0.8c1.9,2,0.8,4-0.9,5.7
		c-5.1,5-10.1,10.1-15.2,15.1c-9.7,9.5-14.4,21.1-14.4,34.7c0,4,0.1,8,0,12.1c-0.1,4.3-2.3,7.4-6.4,8.7c0-1.6,0.1-3.1,0-4.5
		c-0.2-2.9-1.9-4.9-4.5-5c-2.7-0.1-4.7,2-4.8,5.1c-0.1,7.4,0,14.7,0,22.1c0,18.9,0,38,0,56.9c0,5.7-3.2,9.4-8,9.5
		c-4.9,0.2-8.7-3.3-8.8-8.4c-0.2-4.9,0-9.8-0.1-14.6c0-3.8-1.6-5.7-4.6-5.7s-4.6,1.9-4.6,5.7c-0.1,4.5,0.1,9.1,0,13.7
		c-0.1,5.8-3.4,9.5-8.5,9.4c-5,0-8.3-3.7-8.3-9.5c0-25.6,0-51.1,0-76.8c0-1,0.1-1.9-0.1-2.9c-0.4-2.8-2-4.5-4.8-4.4
		c-2.6,0.1-4.2,1.6-4.5,4.3C7,175.9,7,177.6,6.9,179.8z"/>
	<path class="st0" d="M105.4,164.1c0-1.9,0-3.6,0-5.2c0-0.6,0.2-1.2,0.3-1.9c61.9,0,123.7,0,185.6,0c0,2.4,0,4.6,0,7
		C229.5,164.1,167.7,164.1,105.4,164.1z"/>
	<path class="st0" d="M291.4,13.6c0,2.4,0,4.6,0,6.9c-61.9,0-123.7,0-185.7,0c0-2.2,0-4.5,0-6.9C167.5,13.6,229.3,13.6,291.4,13.6z"
		/>
	<path class="st0" d="M38,93.4c8.2,0,15,6.6,15.1,14.7c0.1,8.3-6.8,15.2-15.1,15.2c-8.3,0-15-6.8-15-15.2
		C23.1,99.9,29.8,93.4,38,93.4z"/>
	<path class="st0" d="M233.9,173.9c0,1.9,0,3.6,0,5.5c-23.6,0-47,0-70.6,0c0-1.9,0-3.6,0-5.5C186.7,173.9,210.2,173.9,233.9,173.9z"
		/>
	<path class="st0" d="M201.7,189.2c0,16.6,0,33,0,49.6c-0.6,0.2-1.3,0.3-1.9,0.4c-4.7,0.2-4.7,0.2-4.7-4.4c0-13.5,0-27,0-40.5
		C195.2,188.2,195.2,188.2,201.7,189.2z"/>
	<path class="st0" d="M164.9,252.4c0-1.4,0-2.4,0-3.6c22.4,0,44.7,0,67.3,0c0.1,1.1,0.2,2.3,0.2,3.6
		C209.8,252.4,187.5,252.4,164.9,252.4z"/>
	<path class="st0" d="M183.7,105.2c-3.6-6.7-6.8-12.9-10.1-19.1c-6.5-11.8-3.7-26.5,6.6-35.4c10.2-8.7,25.6-9.1,35.9-0.7
		c10.7,8.5,13.9,23.1,7.9,35.1c-3.2,6.2-6.2,12.5-9.5,18.8c-0.3,0.6-1.2,1.1-1.9,1.2c-0.9,0.2-1.9,0.1-2.9,0.1
		C200.8,105.2,191.9,105.2,183.7,105.2z"/>
	<path class="st0" d="M181.4,120.4c0-1.9,0-3.6,0-5.7c11.4,0,22.7,0,34.2,0c0,1.8,0,3.6,0,5.7C204.3,120.4,193,120.4,181.4,120.4z"
		/>
	<path class="st0" d="M194.3,130.1c2.9,0,5.6,0,8.3,0c-0.1,2.4-1.4,3.3-3.5,3.3C197,133.5,194.8,133.5,194.3,130.1z"/>
</g>
</svg>
