<?xml version="1.0" encoding="utf-8"?>
<!-- Generator: Adobe Illustrator 24.0.2, SVG Export Plug-In . SVG Version: 6.00 Build 0)  -->
<svg version="1.1" id="Capa_1" xmlns="http://www.w3.org/2000/svg" xmlns:xlink="http://www.w3.org/1999/xlink" x="0px" y="0px"
	 viewBox="0 0 384 384" style="enable-background:new 0 0 384 384;" xml:space="preserve">
<style type="text/css">
	.st0{fill:#FFFFFF;}
</style>
<g>
	<path class="st0" d="M293.6,272.5c0,20,1,39.4-0.2,58.6c-1.8,26.9-23.9,46.2-50.8,46.2c-56.8,0-113.6-0.6-170.4,0.3
		C42,378.1,17.9,355.3,18,323.6c0.1-28.8,0-57.7,0-86.5c0-58.7,0-117.4,0-176.2c0-19.9,7.5-36.1,24.5-47.2C50.3,8.6,59,6.3,68.3,6.3
		c58.4,0,116.9,0,175.3,0c25.6,0,47.4,19.5,49.8,45c1,10.8,0.6,21.7,0.7,32.5c0,1.3-1.2,2.8-2.3,3.8c-4.3,3.9-9.1,7.2-13.2,11.3
		c-33.9,33.8-67.3,68.1-101.8,101.3c-16,15.4-26.7,32.6-29.5,54.8c-1.3,10.3-3.9,20.4-5.9,30.6c-5,26.6,17.5,49.4,44.1,44.6
		c14.2-2.6,28.3-5.5,42.4-8.3c13.8-2.7,25.5-9.3,35.4-19.4c8.9-9,17.9-17.9,26.8-26.8C291.2,274.8,292.3,273.8,293.6,272.5z
		 M155.9,110.9c15.6,0,31.2,0,46.8,0c6.8,0,13.7,0.1,20.5-0.1c6.3-0.2,11.5-4.3,13.2-10.1c1.7-6.1-0.5-12.7-6-15.8
		c-2.7-1.5-6.2-2.4-9.3-2.4c-43.4-0.2-86.7-0.1-130.1-0.1c-1.8,0-3.6,0.2-5.3,0.7c-5.1,1.4-8.5,4.8-9.9,9.9
		c-2.6,9.3,4.1,17.9,14.2,17.9C112,111,134,110.9,155.9,110.9z M137.4,168c15.4,0,30.9,0.1,46.3,0c8.8,0,15.1-6,15.2-14.1
		c0.1-8.1-6.2-14.2-14.9-14.4c-3.7-0.1-7.4,0-11.1,0c-27.2,0-54.4,0-81.6,0c-6.7,0-11.9,2.3-14.8,8.6c-4.3,9.5,2.4,19.7,13.2,19.9
		C105.6,168.1,121.5,168,137.4,168z"/>
	<path class="st0" d="M366,143.8c0,11.4-4.8,20.6-12.7,28.5c-19.3,19.2-38.5,38.4-57.7,57.7c-17.2,17.2-34.5,34.4-51.7,51.7
		c-6.8,6.9-14.8,11.1-24.4,12.8c-12.6,2.3-25,5-37.6,7.5c-8.3,1.7-13.9-3.5-12.3-11.9c2.7-14.1,5.6-28.2,8.5-42.3
		c1.5-7,5-13,10-18.1c37.6-37.6,75.2-75.3,112.9-112.9c11.5-11.5,27.6-14.4,41.9-8.2C357.2,114.8,366.1,128.4,366,143.8z"/>
</g>
</svg>
