<?xml version="1.0" encoding="utf-8"?>
<!-- Generator: Adobe Illustrator 24.0.2, SVG Export Plug-In . SVG Version: 6.00 Build 0)  -->
<svg version="1.1" id="Capa_1" xmlns="http://www.w3.org/2000/svg" xmlns:xlink="http://www.w3.org/1999/xlink" x="0px" y="0px"
	 viewBox="0 0 384 384" style="enable-background:new 0 0 384 384;" xml:space="preserve">
<style type="text/css">
	.st0{fill:#022136;}
</style>
<g>
	<path class="st0" d="M37.5,384c-11,0-22,0-33,0c1-1.3,1.9-2.6,2.9-3.8C51.3,329.1,95.3,278.1,139.2,227c3.9-4.5,7.7-9.1,11.6-13.5
		c-0.7-1-1.2-1.8-1.7-2.5C101.9,142.3,54.6,73.5,7.4,4.7C6.4,3.2,5.5,1.6,4.5,0C41.7,0,79,0,116.3,0c0.3,0.5,0.5,1.1,0.9,1.6
		c31.5,45.8,62.9,91.6,94.4,137.4c0.5,0.7,0.8,1.4,1.3,2.3c41-47.6,81.3-94.5,121.6-141.4c11,0,22,0,33,0c-0.2,0.3-0.4,0.6-0.7,0.9
		C328,46.1,289.1,91.3,250.3,136.4c-7.5,8.7-14.9,17.4-22.4,26.1c0.7,1.1,1.2,1.9,1.8,2.7c42.9,62.4,85.7,124.7,128.6,187.1
		c7.2,10.5,14.2,21.1,21.4,31.6c-37.3,0-74.5,0-111.8,0c-0.4-0.7-0.8-1.5-1.3-2.2c-33-48.1-66-96.1-99.1-144.2
		c-0.5-0.8-1.2-1.5-2-2.4c-1.2,1.3-2.2,2.4-3.1,3.6c-26.6,31-53.3,61.9-79.9,92.9C67.4,349.1,52.4,366.5,37.5,384z M334,359.9
		c-0.8-1.2-1.3-2.2-1.9-3.1C255.4,247.1,178.7,137.3,102,27.6c-1.3-1.9-2.7-2.8-5.2-2.8c-14.7,0.1-29.5,0.1-44.2,0.1
		c-0.9,0-1.8,0.2-3.2,0.3c1,1.5,1.8,2.7,2.5,3.8c50.3,72,100.6,143.9,150.9,215.9c26.2,37.5,52.4,74.9,78.6,112.3
		c0.9,1.3,2.8,2.8,4.2,2.8c15.5,0.2,31,0.1,46.5,0.1C332.7,360.1,333.2,360,334,359.9z"/>
</g>
</svg>
