<?xml version="1.0" encoding="utf-8"?>
<!-- Generator: Adobe Illustrator 24.0.2, SVG Export Plug-In . SVG Version: 6.00 Build 0)  -->
<svg version="1.1" id="Capa_1" xmlns="http://www.w3.org/2000/svg" xmlns:xlink="http://www.w3.org/1999/xlink" x="0px" y="0px"
	 viewBox="0 0 384 384" style="enable-background:new 0 0 384 384;" xml:space="preserve">
<style type="text/css">
	.st0{fill:#022136;}
</style>
<g>
	<path class="st0" d="M0,214.5c0-15,0-30,0-45c0.2-1.3,0.5-2.7,0.6-4c0.8-10.8,1.3-21.7,2.5-32.5c1.8-16.1,4.9-31.8,12.5-46.3
		c6.8-13,16.9-21.6,31.9-23c12.7-1.1,25.4-2.3,38.1-2.4c61.4-0.4,122.7-0.7,184.1-0.6c20.7,0,41.5,1.2,62.2,2.3
		c13.2,0.7,24.6,5.4,32.3,16.9c5.2,7.7,8.9,16.1,11.4,25.1c4,14.4,5.8,29.1,6.9,44c0.5,6.8,1,13.7,1.5,20.5c0,15,0,30,0,45
		c-0.2,1.3-0.5,2.7-0.6,4c-0.8,10.8-1.3,21.7-2.5,32.5c-1.7,16.1-4.9,31.8-12.6,46.3c-6.4,12-15.5,20.4-29.3,22.7
		c-5.5,0.9-11.1,1.7-16.7,1.8c-26.7,0.7-53.5,1.8-80.2,1.7c-60.1-0.2-120.2-1-180.3-1.7c-9.7-0.1-19.5-1.2-28.4-5.7
		c-11.2-5.7-17-15.9-21.4-26.9C5,272,3,253.9,1.5,235.7C1,228.6,0.5,221.6,0,214.5z M264,192c-40.3-24.2-79.9-47.9-119.7-71.8
		c0,48.1,0,95.6,0,143.6C184.3,239.8,223.8,216.1,264,192z"/>
</g>
</svg>
